<svg xmlns="http://www.w3.org/2000/svg" xmlns:xlink="http://www.w3.org/1999/xlink" width="500" zoomAndPan="magnify" viewBox="0 0 375 818.24998" height="1091" preserveAspectRatio="xMidYMid meet" version="1.0"><defs><clipPath id="eb59e84ddf"><path d="M 321 139 L 374.828125 139 L 374.828125 169 L 321 169 Z M 321 139 " clip-rule="nonzero"/></clipPath><clipPath id="65c60213f1"><path d="M 321 154 L 374.828125 154 L 374.828125 175 L 321 175 Z M 321 154 " clip-rule="nonzero"/></clipPath><clipPath id="e8728fd8f6"><path d="M 0.171875 139 L 54 139 L 54 169 L 0.171875 169 Z M 0.171875 139 " clip-rule="nonzero"/></clipPath><clipPath id="dab673033d"><path d="M 0.171875 154 L 54 154 L 54 175 L 0.171875 175 Z M 0.171875 154 " clip-rule="nonzero"/></clipPath><clipPath id="1a45ac4af2"><path d="M 221 429 L 300 429 L 300 817.5 L 221 817.5 Z M 221 429 " clip-rule="nonzero"/></clipPath><clipPath id="749939b77f"><path d="M 156 0.0664062 L 219 0.0664062 L 219 190 L 156 190 Z M 156 0.0664062 " clip-rule="nonzero"/></clipPath><clipPath id="a4162d7150"><path d="M 75 429 L 154 429 L 154 817.5 L 75 817.5 Z M 75 429 " clip-rule="nonzero"/></clipPath></defs><path fill="#322943" d="M 114.71875 232.398438 C 112.964844 227.910156 110.644531 223.652344 107.699219 219.746094 C 104.253906 215.179688 100.15625 207.765625 95.980469 198.566406 C 85.269531 174.964844 126.324219 123.199219 139.035156 204.355469 C 142.921875 219.691406 157.015625 234.535156 141.445312 242.574219 C 128.054688 249.480469 119.703125 245.179688 114.71875 232.398438 " fill-opacity="1" fill-rule="nonzero"/><path fill="#478fd0" d="M 114.105469 226.117188 C 114.105469 226.117188 98.445312 391.203125 117.519531 498.324219 C 165.96875 508.65625 166.230469 469.285156 166.230469 469.285156 C 166.230469 469.285156 141.070312 276.378906 142.503906 236.390625 C 138.21875 206.847656 115.804688 209.21875 114.105469 226.117188 " fill-opacity="1" fill-rule="nonzero"/><path fill="#322943" d="M 260.28125 232.398438 C 262.027344 227.910156 264.355469 223.652344 267.300781 219.746094 C 270.742188 215.179688 274.839844 207.765625 279.019531 198.566406 C 289.730469 174.964844 248.675781 123.199219 235.960938 204.355469 C 232.074219 219.691406 217.984375 234.535156 233.554688 242.574219 C 246.945312 249.480469 255.296875 245.179688 260.28125 232.398438 " fill-opacity="1" fill-rule="nonzero"/><path fill="#478fd0" d="M 260.890625 226.117188 C 260.890625 226.117188 276.554688 391.203125 257.480469 498.324219 C 209.027344 508.65625 208.765625 469.285156 208.765625 469.285156 C 208.765625 469.285156 233.925781 276.378906 232.492188 236.390625 C 236.78125 206.847656 259.1875 209.21875 260.890625 226.117188 " fill-opacity="1" fill-rule="nonzero"/><path fill="#314153" d="M 328.050781 144.132812 L 321.054688 144.132812 C 309.605469 144.132812 298.96875 150.070312 292.960938 159.820312 L 287.851562 168.109375 C 282.863281 176.203125 274.042969 181.128906 264.535156 181.128906 L 252.042969 181.128906 C 250.492188 181.128906 249.234375 182.390625 249.234375 183.9375 C 249.234375 185.488281 250.492188 186.742188 252.042969 186.742188 L 264.535156 186.742188 C 275.988281 186.742188 286.621094 180.804688 292.632812 171.058594 L 297.738281 162.765625 C 302.722656 154.671875 311.550781 149.746094 321.050781 149.746094 L 328.050781 149.746094 C 329.601562 149.746094 330.859375 148.492188 330.859375 146.9375 C 330.859375 145.386719 329.601562 144.132812 328.050781 144.132812 " fill-opacity="1" fill-rule="nonzero"/><g clip-path="url(#eb59e84ddf)"><path fill="#6780a9" d="M 374.261719 156.121094 C 370.566406 146.371094 337.589844 136.484375 328.996094 140.484375 C 322.75 147.40625 321.425781 155.15625 321.164062 157.394531 C 321.128906 157.582031 321.109375 157.773438 321.105469 157.960938 C 321.105469 158.003906 321.101562 158.03125 321.101562 158.03125 L 321.101562 164.664062 L 327.871094 164.664062 C 332.785156 166.726562 339.945312 168.023438 347.929688 168.023438 C 355.910156 168.023438 363.074219 166.726562 367.992188 164.664062 L 374.757812 164.664062 L 374.757812 158.03125 C 374.757812 157.378906 374.585938 156.742188 374.261719 156.121094 " fill-opacity="1" fill-rule="nonzero"/></g><g clip-path="url(#65c60213f1)"><path fill="#81a8d8" d="M 347.933594 154.667969 C 333.117188 154.667969 321.105469 159.144531 321.105469 164.664062 C 321.105469 170.183594 333.117188 174.65625 347.933594 174.65625 C 362.75 174.65625 374.761719 170.183594 374.761719 164.664062 C 374.761719 159.144531 362.75 154.667969 347.933594 154.667969 " fill-opacity="1" fill-rule="nonzero"/></g><path fill="#314153" d="M 46.949219 144.132812 L 53.945312 144.132812 C 65.402344 144.132812 76.035156 150.070312 82.042969 159.820312 L 87.152344 168.109375 C 92.136719 176.203125 100.964844 181.128906 110.46875 181.128906 L 122.960938 181.128906 C 124.511719 181.128906 125.769531 182.390625 125.769531 183.9375 C 125.769531 185.488281 124.511719 186.742188 122.960938 186.742188 L 110.464844 186.742188 C 99.015625 186.742188 88.382812 180.804688 82.371094 171.058594 L 77.265625 162.765625 C 72.277344 154.671875 63.453125 149.746094 53.949219 149.746094 L 46.949219 149.746094 C 45.402344 149.746094 44.144531 148.492188 44.144531 146.9375 C 44.144531 145.386719 45.402344 144.132812 46.949219 144.132812 " fill-opacity="1" fill-rule="nonzero"/><g clip-path="url(#e8728fd8f6)"><path fill="#6780a9" d="M 0.738281 156.121094 C 4.433594 146.371094 37.410156 136.484375 46.003906 140.484375 C 52.25 147.40625 53.574219 155.15625 53.835938 157.394531 C 53.871094 157.582031 53.886719 157.773438 53.890625 157.960938 C 53.894531 158.003906 53.898438 158.03125 53.898438 158.03125 L 53.898438 164.664062 L 47.128906 164.664062 C 42.214844 166.726562 35.050781 168.023438 27.070312 168.023438 C 19.085938 168.023438 11.921875 166.726562 7.007812 164.664062 L 0.238281 164.664062 L 0.238281 158.03125 C 0.238281 157.378906 0.414062 156.742188 0.738281 156.121094 " fill-opacity="1" fill-rule="nonzero"/></g><g clip-path="url(#dab673033d)"><path fill="#81a8d8" d="M 27.070312 154.667969 C 41.886719 154.667969 53.898438 159.144531 53.898438 164.664062 C 53.898438 170.183594 41.886719 174.65625 27.070312 174.65625 C 12.253906 174.65625 0.242188 170.183594 0.242188 164.664062 C 0.242188 159.144531 12.253906 154.667969 27.070312 154.667969 " fill-opacity="1" fill-rule="nonzero"/></g><g clip-path="url(#1a45ac4af2)"><path fill="#81a8d8" d="M 224.140625 429.3125 C 224.140625 429.3125 271.046875 426.683594 269.898438 508.140625 C 279.191406 521.011719 291.34375 535.3125 291.34375 535.3125 L 299.925781 714.070312 L 288.128906 734.445312 L 294.5625 817.570312 L 266.679688 803.628906 L 269.898438 734.445312 L 251.125 714.605469 L 247.375 598.234375 L 254.347656 508.945312 C 254.347656 508.945312 256.667969 449.152344 224.140625 445.128906 C 217.613281 433.332031 224.140625 429.3125 224.140625 429.3125 " fill-opacity="1" fill-rule="nonzero"/></g><path fill="#6591cf" d="M 288.128906 734.445312 L 278.988281 734.445312 L 267.945312 714.421875 L 299.925781 714.070312 L 288.128906 734.445312 " fill-opacity="1" fill-rule="nonzero"/><path fill="#a5a7a6" d="M 276.246094 808.414062 L 266.675781 803.628906 L 269.75 737.523438 L 266.675781 803.628906 L 276.246094 808.414062 M 269.894531 734.445312 L 251.125 714.605469 L 249.328125 658.972656 L 251.125 714.605469 L 269.894531 734.445312 " fill-opacity="1" fill-rule="nonzero"/><path fill="#6591cf" d="M 276.25 808.410156 L 266.679688 803.628906 L 269.753906 737.523438 L 269.898438 734.445312 L 278.988281 734.445312 L 276.25 808.410156 M 251.128906 714.605469 L 249.332031 658.96875 L 262.710938 617.140625 C 262.886719 616.574219 263.0625 616.007812 263.242188 615.4375 C 265.125 667.804688 267.753906 714.070312 267.753906 714.070312 L 267.945312 714.421875 L 251.128906 714.605469 " fill-opacity="1" fill-rule="nonzero"/><path fill="#4d73c2" d="M 278.988281 734.445312 L 269.898438 734.445312 L 251.128906 714.605469 L 267.945312 714.421875 L 278.988281 734.445312 " fill-opacity="1" fill-rule="nonzero"/><path fill="#6591cf" d="M 261.578125 508.140625 L 256.441406 508.140625 L 255.710938 506.277344 C 258.265625 499.847656 259.683594 492.734375 259.683594 485.246094 L 259.683594 480.007812 C 259.792969 479.785156 259.894531 479.558594 260 479.332031 C 261.3125 486.449219 261.957031 494.671875 261.679688 504.191406 C 261.644531 505.484375 261.609375 506.800781 261.578125 508.140625 " fill-opacity="1" fill-rule="nonzero"/><path fill="#ffffff" d="M 291.34375 535.3125 C 291.34375 535.3125 279.1875 521.015625 269.894531 508.144531 L 291.34375 535.3125 " fill-opacity="1" fill-rule="nonzero"/><path fill="#a4c0e2" d="M 266.277344 538.175781 C 264.988281 532.390625 263.359375 526.667969 261.394531 521.058594 C 261.425781 516.550781 261.484375 512.226562 261.578125 508.144531 L 269.894531 508.144531 C 279.1875 521.015625 291.34375 535.3125 291.34375 535.3125 C 291.34375 535.3125 279.296875 536.640625 266.277344 538.175781 " fill-opacity="1" fill-rule="nonzero"/><path fill="#80b3da" d="M 261.394531 521.054688 C 260.78125 519.304688 260.140625 517.566406 259.460938 515.839844 L 256.445312 508.140625 L 261.578125 508.140625 C 261.484375 512.226562 261.425781 516.550781 261.394531 521.054688 " fill-opacity="1" fill-rule="nonzero"/><path fill="#314153" d="M 91.144531 207.292969 L 92.605469 203.808594 C 79.230469 198.171875 62.277344 207.867188 61.5625 208.277344 L 63.464844 211.554688 C 63.621094 211.460938 79.511719 202.394531 91.144531 207.292969 " fill-opacity="1" fill-rule="nonzero"/><g clip-path="url(#749939b77f)"><path fill="#314153" d="M 194.398438 0.0703125 L 180.597656 0.0703125 C 167.257812 0.0703125 156.445312 10.886719 156.445312 24.222656 L 156.445312 189.851562 L 218.550781 189.851562 L 218.550781 24.222656 C 218.550781 10.886719 207.742188 0.0703125 194.398438 0.0703125 " fill-opacity="1" fill-rule="nonzero"/></g><path fill="#81a8d8" d="M 177.074219 808.410156 L 197.929688 808.410156 C 218.09375 808.410156 234.4375 792.070312 234.4375 771.902344 L 234.4375 521.566406 L 140.566406 521.566406 L 140.566406 771.902344 C 140.566406 792.070312 156.910156 808.410156 177.074219 808.410156 " fill-opacity="1" fill-rule="nonzero"/><path fill="#6591cf" d="M 213.285156 804.992188 L 213.285156 712.878906 C 221.632812 709.121094 228.929688 703.28125 234.4375 695.902344 L 234.4375 771.902344 C 234.4375 786.574219 225.765625 799.1875 213.285156 804.992188 " fill-opacity="1" fill-rule="nonzero"/><path fill="#ffffff" d="M 140.570312 772.335938 C 140.570312 772.332031 140.570312 772.332031 140.570312 772.332031 C 140.570312 772.332031 140.570312 772.332031 140.570312 772.335938 M 140.566406 772.25 L 140.566406 772.246094 C 140.566406 772.25 140.566406 772.25 140.566406 772.25 M 140.566406 772.167969 C 140.566406 772.167969 140.566406 772.160156 140.566406 772.15625 C 140.566406 772.160156 140.566406 772.167969 140.566406 772.167969 M 140.566406 772.078125 C 140.566406 772.074219 140.566406 772.074219 140.566406 772.070312 C 140.566406 772.074219 140.566406 772.074219 140.566406 772.078125 M 140.566406 772 C 140.566406 771.992188 140.566406 771.984375 140.566406 771.984375 C 140.566406 771.984375 140.566406 771.992188 140.566406 772 " fill-opacity="1" fill-rule="nonzero"/><path fill="#a4c0e2" d="M 161.71875 804.992188 C 149.359375 799.246094 140.734375 786.824219 140.570312 772.335938 C 140.570312 772.332031 140.570312 772.332031 140.570312 772.332031 C 140.570312 772.304688 140.566406 772.277344 140.566406 772.25 C 140.566406 772.25 140.566406 772.25 140.566406 772.246094 C 140.566406 772.222656 140.566406 772.195312 140.566406 772.167969 C 140.566406 772.167969 140.566406 772.160156 140.566406 772.15625 C 140.566406 772.128906 140.566406 772.105469 140.566406 772.078125 C 140.566406 772.074219 140.566406 772.074219 140.566406 772.070312 C 140.566406 772.046875 140.566406 772.023438 140.566406 772 C 140.566406 771.992188 140.566406 771.984375 140.566406 771.984375 C 140.566406 771.957031 140.566406 771.933594 140.566406 771.90625 L 140.566406 695.90625 C 146.074219 703.28125 153.367188 709.121094 161.71875 712.882812 L 161.71875 804.992188 " fill-opacity="1" fill-rule="nonzero"/><path fill="#81a8d8" d="M 197.929688 31.089844 L 177.070312 31.089844 C 156.90625 31.089844 140.566406 47.433594 140.566406 67.597656 L 140.566406 317.933594 L 234.433594 317.933594 L 234.433594 67.597656 C 234.433594 47.433594 218.09375 31.089844 197.929688 31.089844 " fill-opacity="1" fill-rule="nonzero"/><path fill="#a4c0e2" d="M 140.566406 208.800781 L 140.566406 153.929688 L 160.058594 170.96875 L 160.058594 196.769531 C 152.957031 199.730469 146.390625 203.8125 140.566406 208.800781 M 140.566406 102.878906 L 140.566406 67.601562 C 140.566406 67.574219 140.566406 67.546875 140.566406 67.519531 C 140.566406 67.511719 140.566406 67.507812 140.566406 67.503906 C 140.566406 67.476562 140.566406 67.453125 140.566406 67.425781 C 140.566406 67.398438 140.566406 67.371094 140.566406 67.34375 C 140.566406 67.339844 140.566406 67.339844 140.566406 67.332031 C 140.667969 52.773438 149.3125 40.277344 161.71875 34.511719 L 161.71875 100.871094 L 148.898438 100.871094 C 145.894531 100.871094 143.0625 101.597656 140.566406 102.878906 " fill-opacity="1" fill-rule="nonzero"/><path fill="#6591cf" d="M 234.433594 208.800781 C 228.609375 203.8125 222.039062 199.730469 214.941406 196.769531 L 214.941406 170.96875 L 234.433594 153.929688 L 234.433594 208.800781 M 234.433594 102.878906 C 231.933594 101.597656 229.105469 100.871094 226.101562 100.871094 L 213.28125 100.871094 L 213.28125 34.511719 C 225.761719 40.308594 234.433594 52.925781 234.433594 67.601562 L 234.433594 102.878906 " fill-opacity="1" fill-rule="nonzero"/><g clip-path="url(#a4162d7150)"><path fill="#81a8d8" d="M 150.863281 429.308594 C 150.863281 429.308594 103.957031 426.683594 105.101562 508.140625 C 95.8125 521.011719 83.65625 535.3125 83.65625 535.3125 L 75.078125 714.070312 L 86.875 734.445312 L 80.4375 817.570312 L 108.320312 803.628906 L 105.101562 734.445312 L 123.875 714.605469 L 127.625 598.234375 L 120.652344 508.945312 C 120.652344 508.945312 118.332031 449.152344 150.863281 445.128906 C 157.382812 433.332031 150.863281 429.308594 150.863281 429.308594 " fill-opacity="1" fill-rule="nonzero"/></g><path fill="#6591cf" d="M 96.011719 734.445312 L 86.875 734.445312 L 75.078125 714.070312 L 107.054688 714.421875 L 96.011719 734.445312 " fill-opacity="1" fill-rule="nonzero"/><path fill="#a5a7a6" d="M 98.75 808.414062 L 108.320312 803.628906 L 98.75 808.414062 M 105.101562 734.445312 L 123.875 714.605469 L 125.667969 658.96875 L 123.875 714.605469 L 105.101562 734.445312 " fill-opacity="1" fill-rule="nonzero"/><path fill="#6591cf" d="M 98.75 808.414062 L 96.011719 734.445312 L 105.101562 734.445312 L 108.320312 803.628906 L 98.75 808.414062 M 123.875 714.605469 L 107.054688 714.421875 L 107.25 714.070312 C 107.25 714.070312 109.875 667.804688 111.757812 615.4375 C 111.9375 616.007812 112.113281 616.574219 112.292969 617.140625 L 125.667969 658.96875 L 123.875 714.605469 " fill-opacity="1" fill-rule="nonzero"/><path fill="#4d73c2" d="M 105.101562 734.445312 L 96.011719 734.445312 L 107.054688 714.421875 L 123.875 714.605469 L 105.101562 734.445312 " fill-opacity="1" fill-rule="nonzero"/><path fill="#6591cf" d="M 118.554688 508.140625 L 113.421875 508.140625 C 113.390625 506.796875 113.355469 505.480469 113.316406 504.191406 C 113.042969 494.667969 113.6875 486.441406 115.003906 479.324219 C 115.191406 479.742188 115.382812 480.15625 115.578125 480.566406 L 115.578125 485.246094 C 115.578125 492.597656 116.953125 499.597656 119.421875 505.933594 L 118.554688 508.140625 " fill-opacity="1" fill-rule="nonzero"/><path fill="#ffffff" d="M 83.65625 535.3125 L 105.101562 508.140625 C 95.820312 521 83.679688 535.285156 83.65625 535.3125 " fill-opacity="1" fill-rule="nonzero"/><path fill="#a4c0e2" d="M 108.71875 538.175781 C 95.703125 536.640625 83.65625 535.3125 83.65625 535.3125 C 83.679688 535.285156 95.820312 521 105.101562 508.140625 L 113.421875 508.140625 C 113.511719 512.226562 113.574219 516.546875 113.605469 521.054688 C 111.640625 526.667969 110.011719 532.386719 108.71875 538.175781 " fill-opacity="1" fill-rule="nonzero"/><path fill="#80b3da" d="M 113.605469 521.054688 C 113.574219 516.546875 113.511719 512.226562 113.421875 508.140625 L 118.554688 508.140625 L 115.539062 515.839844 C 114.859375 517.566406 114.21875 519.304688 113.605469 521.054688 " fill-opacity="1" fill-rule="nonzero"/><path fill="#314153" d="M 120.632812 774.492188 C 120.394531 762.574219 114.984375 753.039062 108.320312 753.039062 C 101.660156 753.039062 96.246094 762.574219 96.011719 774.492188 L 120.632812 774.492188 " fill-opacity="1" fill-rule="nonzero"/><path fill="#f9af1e" d="M 97.222656 774.492188 C 99.214844 781.9375 103.429688 787.089844 108.320312 787.089844 C 113.210938 787.089844 117.429688 781.9375 119.421875 774.492188 L 97.222656 774.492188 " fill-opacity="1" fill-rule="nonzero"/><path fill="#314153" d="M 156.582031 766.445312 L 107.25 766.445312 L 107.25 774.492188 L 156.582031 774.492188 L 156.582031 766.445312 " fill-opacity="1" fill-rule="nonzero"/><path fill="#314153" d="M 259.460938 515.839844 L 237.121094 458.847656 C 232.039062 445.886719 219.535156 437.351562 205.613281 437.351562 L 169.386719 437.351562 C 155.464844 437.351562 142.960938 445.886719 137.875 458.847656 L 115.539062 515.839844 C 108.644531 533.433594 105.101562 552.160156 105.101562 571.058594 C 105.101562 586.695312 107.527344 602.242188 112.292969 617.144531 L 132.402344 680.03125 C 139.566406 702.4375 160.390625 717.644531 183.910156 717.644531 L 191.085938 717.644531 C 214.605469 717.644531 235.433594 702.4375 242.597656 680.03125 L 262.707031 617.144531 C 267.472656 602.242188 269.894531 586.695312 269.894531 571.058594 C 269.894531 552.160156 266.355469 533.433594 259.460938 515.839844 " fill-opacity="1" fill-rule="nonzero"/><path fill="#6591cf" d="M 183.816406 717.644531 C 183.808594 717.644531 183.800781 717.644531 183.792969 717.644531 C 183.800781 717.644531 183.808594 717.644531 183.816406 717.644531 M 183.699219 717.644531 C 183.691406 717.644531 183.6875 717.644531 183.679688 717.644531 C 183.6875 717.644531 183.691406 717.644531 183.699219 717.644531 M 183.589844 717.644531 C 183.585938 717.644531 183.578125 717.644531 183.578125 717.644531 C 183.582031 717.644531 183.582031 717.644531 183.589844 717.644531 M 183.476562 717.644531 C 183.472656 717.644531 183.46875 717.644531 183.460938 717.644531 C 183.46875 717.644531 183.472656 717.644531 183.476562 717.644531 M 183.253906 717.640625 C 183.253906 717.640625 183.25 717.640625 183.246094 717.640625 C 183.246094 717.640625 183.253906 717.640625 183.253906 717.640625 M 183.140625 717.640625 C 183.136719 717.640625 183.136719 717.640625 183.132812 717.640625 C 183.136719 717.640625 183.140625 717.640625 183.140625 717.640625 " fill-opacity="1" fill-rule="nonzero"/><path fill="#212b37" d="M 191.085938 717.644531 L 183.910156 717.644531 C 183.878906 717.644531 183.847656 717.644531 183.8125 717.644531 C 183.808594 717.644531 183.800781 717.644531 183.792969 717.644531 C 183.761719 717.644531 183.726562 717.644531 183.699219 717.644531 C 183.691406 717.644531 183.683594 717.644531 183.679688 717.644531 C 183.648438 717.644531 183.621094 717.644531 183.589844 717.644531 C 183.582031 717.644531 183.582031 717.644531 183.574219 717.644531 C 183.542969 717.644531 183.511719 717.644531 183.476562 717.644531 C 183.472656 717.644531 183.464844 717.644531 183.460938 717.644531 C 183.390625 717.644531 183.324219 717.640625 183.253906 717.640625 C 183.25 717.640625 183.246094 717.640625 183.246094 717.640625 C 183.207031 717.640625 183.171875 717.640625 183.140625 717.640625 C 183.140625 717.640625 183.136719 717.640625 183.132812 717.640625 C 164.523438 717.371094 147.699219 707.585938 138.109375 692.289062 C 147.878906 701.054688 160.863281 706.28125 174.820312 706.28125 L 181.992188 706.28125 C 205.515625 706.28125 226.339844 691.527344 233.5 669.789062 L 253.613281 608.777344 C 258.375 594.324219 260.800781 579.238281 260.800781 564.066406 C 260.800781 547.042969 257.75 530.164062 251.792969 514.175781 C 253.292969 511.6875 254.605469 509.042969 255.710938 506.273438 L 259.460938 515.839844 C 266.355469 533.433594 269.894531 552.160156 269.894531 571.058594 C 269.894531 586.105469 267.648438 601.0625 263.242188 615.4375 C 263.0625 616.007812 262.886719 616.578125 262.707031 617.144531 L 249.332031 658.96875 L 242.597656 680.03125 C 240.734375 685.855469 237.949219 691.195312 234.433594 695.90625 C 228.925781 703.28125 221.628906 709.121094 213.28125 712.882812 C 206.453125 715.957031 198.917969 717.644531 191.085938 717.644531 " fill-opacity="1" fill-rule="nonzero"/><path fill="#314153" d="M 254.367188 774.492188 C 254.605469 762.574219 260.019531 753.035156 266.679688 753.035156 C 273.34375 753.035156 278.753906 762.574219 278.988281 774.492188 L 254.367188 774.492188 " fill-opacity="1" fill-rule="nonzero"/><path fill="#f9af1e" d="M 277.777344 774.492188 C 275.789062 781.9375 271.570312 787.089844 266.679688 787.089844 C 261.789062 787.089844 257.570312 781.9375 255.578125 774.492188 L 277.777344 774.492188 " fill-opacity="1" fill-rule="nonzero"/><path fill="#314153" d="M 218.417969 766.445312 L 267.753906 766.445312 L 267.753906 774.492188 L 218.417969 774.492188 L 218.417969 766.445312 " fill-opacity="1" fill-rule="nonzero"/><path fill="#314153" d="M 104.617188 90.535156 C 104.378906 102.453125 98.964844 111.988281 92.304688 111.988281 C 85.644531 111.988281 80.230469 102.453125 79.992188 90.535156 L 104.617188 90.535156 " fill-opacity="1" fill-rule="nonzero"/><path fill="#f9af1e" d="M 81.207031 90.535156 C 83.199219 83.085938 87.414062 77.933594 92.308594 77.933594 C 97.199219 77.933594 101.410156 83.085938 103.402344 90.535156 L 81.207031 90.535156 " fill-opacity="1" fill-rule="nonzero"/><path fill="#314153" d="M 140.566406 98.578125 L 91.234375 98.578125 L 91.234375 90.535156 L 140.566406 90.535156 L 140.566406 98.578125 " fill-opacity="1" fill-rule="nonzero"/><path fill="#314153" d="M 270.382812 90.535156 C 270.617188 102.453125 276.035156 111.988281 282.695312 111.988281 C 289.351562 111.988281 294.765625 102.453125 295.003906 90.535156 L 270.382812 90.535156 " fill-opacity="1" fill-rule="nonzero"/><path fill="#f9af1e" d="M 293.796875 90.535156 C 291.800781 83.085938 287.589844 77.933594 282.691406 77.933594 C 277.800781 77.933594 273.589844 83.085938 271.59375 90.535156 L 293.796875 90.535156 " fill-opacity="1" fill-rule="nonzero"/><path fill="#314153" d="M 234.433594 98.578125 L 283.765625 98.578125 L 283.765625 90.535156 L 234.433594 90.535156 L 234.433594 98.578125 " fill-opacity="1" fill-rule="nonzero"/><path fill="#6780a9" d="M 218.398438 754.902344 L 196.253906 746.601562 L 196.253906 743.203125 C 196.253906 738.367188 192.335938 734.445312 187.5 734.445312 C 182.664062 734.445312 178.746094 738.367188 178.746094 743.203125 L 178.746094 746.601562 L 156.601562 754.902344 C 150.40625 757.21875 146.300781 763.140625 146.300781 769.753906 L 146.300781 774.492188 L 228.699219 774.492188 L 228.699219 769.753906 C 228.699219 763.140625 224.59375 757.21875 218.398438 754.902344 " fill-opacity="1" fill-rule="nonzero"/><path fill="#ef3430" d="M 187.5 774.492188 L 153.902344 774.492188 C 153.902344 779.820312 158.222656 784.140625 163.554688 784.140625 L 211.445312 784.140625 C 216.777344 784.140625 221.097656 779.820312 221.097656 774.492188 L 187.5 774.492188 " fill-opacity="1" fill-rule="nonzero"/><path fill="#314153" d="M 226.101562 100.871094 L 148.898438 100.871094 C 138.820312 100.871094 130.65625 109.039062 130.65625 119.113281 L 130.65625 136.976562 C 130.65625 142.242188 132.925781 147.25 136.890625 150.714844 L 160.058594 170.960938 L 160.058594 208.515625 L 187.503906 210.644531 L 214.945312 208.515625 L 214.945312 170.960938 L 238.109375 150.714844 C 242.078125 147.25 244.347656 142.242188 244.347656 136.976562 L 244.347656 119.113281 C 244.347656 109.039062 236.179688 100.871094 226.101562 100.871094 " fill-opacity="1" fill-rule="nonzero"/><path fill="#ffffff" d="M 130.65625 137.027344 C 130.65625 137.007812 130.65625 136.992188 130.65625 136.976562 C 130.65625 136.992188 130.65625 137.007812 130.65625 137.027344 M 244.34375 137.027344 C 244.34375 137.007812 244.34375 136.992188 244.34375 136.976562 L 244.34375 119.113281 L 244.34375 136.976562 C 244.34375 136.992188 244.34375 137.007812 244.34375 137.027344 " fill-opacity="1" fill-rule="nonzero"/><path fill="#425770" d="M 244.222656 139.066406 C 243.1875 129.96875 235.476562 122.898438 226.101562 122.898438 L 148.898438 122.898438 C 139.523438 122.898438 131.8125 129.96875 130.78125 139.066406 C 130.703125 138.394531 130.65625 137.714844 130.65625 137.027344 C 130.65625 137.011719 130.65625 136.988281 130.65625 136.976562 L 130.65625 119.113281 C 130.65625 109.039062 138.820312 100.871094 148.898438 100.871094 L 226.101562 100.871094 C 236.179688 100.871094 244.347656 109.039062 244.347656 119.113281 L 244.347656 136.976562 C 244.347656 136.988281 244.347656 137.011719 244.347656 137.027344 C 244.347656 137.707031 244.296875 138.394531 244.222656 139.066406 " fill-opacity="1" fill-rule="nonzero"/><path fill="#81a8d8" d="M 58.5625 235.335938 L 51.441406 223.261719 L 125.007812 179.875 C 138.222656 172.078125 153.316406 167.960938 168.652344 167.960938 L 187.5 167.960938 L 187.5 181.984375 L 168.652344 181.984375 C 155.816406 181.984375 143.191406 185.429688 132.128906 191.949219 L 58.5625 235.335938 " fill-opacity="1" fill-rule="nonzero"/><path fill="#ef3430" d="M 187.5 191.28125 C 146.53125 191.28125 113.316406 226.054688 113.316406 268.957031 C 113.316406 311.851562 146.53125 429.308594 187.5 429.308594 C 228.46875 429.308594 261.683594 311.851562 261.683594 268.957031 C 261.683594 226.054688 228.46875 191.28125 187.5 191.28125 " fill-opacity="1" fill-rule="nonzero"/><path fill="#314153" d="M 187.5 258.417969 C 175.019531 258.417969 164.898438 268.535156 164.898438 281.027344 C 164.898438 293.507812 175.019531 303.628906 187.5 303.628906 C 199.984375 303.628906 210.101562 293.507812 210.101562 281.027344 C 210.101562 268.535156 199.984375 258.417969 187.5 258.417969 " fill-opacity="1" fill-rule="nonzero"/><path fill="#f9af1e" d="M 261.484375 275.066406 C 249.179688 264.53125 232.726562 266.164062 228.109375 270.957031 C 251.886719 282.476562 249.972656 296.578125 249.136719 306.421875 C 248.304688 316.269531 231.445312 318.101562 230.609375 301.582031 C 226.273438 311.097656 226.769531 319.273438 235.785156 344.472656 C 244.796875 369.675781 227.777344 368.003906 224.605469 363.332031 C 221.433594 358.660156 224.269531 343.308594 215.257812 339.972656 C 206.246094 336.628906 198.738281 329.285156 197.738281 325.445312 C 193.0625 340.972656 204.410156 340.972656 204 357.324219 C 203.589844 373.679688 187.496094 373.957031 187.496094 373.957031 C 187.496094 373.957031 171.40625 373.679688 170.996094 357.324219 C 170.582031 340.972656 181.933594 340.972656 177.257812 325.445312 C 176.257812 329.285156 168.75 336.628906 159.738281 339.972656 C 150.726562 343.308594 153.566406 358.660156 150.394531 363.332031 C 147.222656 368.003906 130.199219 369.675781 139.210938 344.472656 C 148.222656 319.273438 148.726562 311.097656 144.382812 301.582031 C 143.550781 318.101562 126.695312 316.269531 125.863281 306.421875 C 125.027344 296.578125 123.109375 282.476562 146.890625 270.957031 C 142.269531 266.164062 125.820312 264.53125 113.511719 275.066406 C 116.269531 322.003906 148.339844 429.308594 187.496094 429.308594 C 226.65625 429.308594 258.726562 322.003906 261.484375 275.066406 " fill-opacity="1" fill-rule="nonzero"/><path fill="#64ccdd" d="M 124.648438 333.933594 C 124.585938 333.722656 124.527344 333.507812 124.46875 333.292969 C 124.527344 333.507812 124.585938 333.722656 124.648438 333.933594 M 124.425781 333.152344 C 124.402344 333.058594 124.375 332.960938 124.351562 332.875 C 124.375 332.960938 124.402344 333.058594 124.425781 333.152344 M 124.308594 332.738281 C 117.339844 307.839844 113.316406 283.886719 113.316406 268.957031 C 113.316406 283.886719 117.339844 307.839844 124.308594 332.738281 " fill-opacity="1" fill-rule="nonzero"/><path fill="#ffffff" d="M 140.460938 208.894531 C 140.488281 208.863281 140.53125 208.828125 140.566406 208.796875 C 140.53125 208.828125 140.488281 208.863281 140.460938 208.894531 " fill-opacity="1" fill-rule="nonzero"/><path fill="#574676" d="M 135.265625 213.804688 C 136.921875 212.082031 138.652344 210.445312 140.460938 208.894531 C 138.652344 210.445312 136.921875 212.082031 135.265625 213.804688 " fill-opacity="1" fill-rule="nonzero"/><path fill="#d9e5f2" d="M 140.566406 208.800781 C 146.390625 203.808594 152.957031 199.730469 160.058594 196.765625 C 152.957031 199.730469 146.390625 203.808594 140.566406 208.800781 " fill-opacity="1" fill-rule="nonzero"/><path fill="#536d8c" d="M 160.058594 196.769531 C 168.542969 193.230469 177.808594 191.28125 187.5 191.28125 C 187.421875 191.28125 187.34375 191.28125 187.261719 191.28125 C 177.65625 191.3125 168.480469 193.257812 160.058594 196.769531 " fill-opacity="1" fill-rule="nonzero"/><path fill="#f14e41" d="M 136.6875 369.367188 C 132.082031 357.960938 128.03125 345.855469 124.652344 333.933594 C 124.589844 333.722656 124.527344 333.507812 124.46875 333.292969 C 124.457031 333.246094 124.441406 333.195312 124.429688 333.144531 C 124.402344 333.058594 124.375 332.960938 124.351562 332.875 C 124.339844 332.828125 124.324219 332.777344 124.3125 332.734375 C 117.339844 307.839844 113.316406 283.882812 113.316406 268.957031 C 113.316406 247.386719 121.710938 227.878906 135.265625 213.800781 C 136.921875 212.082031 138.652344 210.445312 140.457031 208.894531 C 140.492188 208.863281 140.527344 208.832031 140.5625 208.800781 C 146.390625 203.8125 152.957031 199.730469 160.058594 196.769531 C 168.480469 193.257812 177.65625 191.3125 187.261719 191.28125 C 160.125 191.472656 138.097656 225.328125 137.558594 267.375 C 136.609375 267.273438 135.625 267.226562 134.613281 267.226562 C 128.050781 267.226562 120.175781 269.359375 113.511719 275.066406 C 114.886719 298.433594 123.523438 336.765625 136.6875 369.367188 M 138.101562 362.992188 C 136.136719 359.890625 135.746094 354.171875 139.214844 344.472656 C 141.371094 338.445312 143.039062 333.390625 144.269531 329.066406 C 145.210938 334.261719 146.25 339.527344 147.363281 344.769531 L 146.65625 344.792969 C 142.554688 350.261719 139.847656 356.550781 138.101562 362.992188 M 134.363281 313.917969 C 130.207031 313.921875 126.253906 311.0625 125.863281 306.421875 C 125.15625 298.070312 123.667969 286.660156 137.730469 276.367188 C 138.171875 285.921875 139.390625 297.800781 141.261719 310.6875 C 139.355469 312.917969 136.824219 313.917969 134.363281 313.917969 " fill-opacity="1" fill-rule="nonzero"/><path fill="#f7e41f" d="M 141.335938 372.191406 C 141.609375 371.421875 141.929688 370.722656 142.304688 370.109375 C 141.972656 370.789062 141.648438 371.480469 141.335938 372.191406 M 136.6875 369.371094 C 123.523438 336.765625 114.886719 298.433594 113.511719 275.066406 C 120.171875 269.359375 128.050781 267.222656 134.613281 267.222656 C 135.628906 267.222656 136.609375 267.273438 137.554688 267.371094 C 137.546875 267.898438 137.546875 268.425781 137.546875 268.953125 C 137.546875 271.222656 137.609375 273.703125 137.730469 276.367188 C 123.667969 286.664062 125.15625 298.070312 125.863281 306.417969 C 126.257812 311.0625 130.207031 313.921875 134.359375 313.921875 C 136.820312 313.921875 139.351562 312.917969 141.261719 310.6875 C 142.128906 316.640625 143.132812 322.804688 144.265625 329.0625 C 143.039062 333.394531 141.371094 338.445312 139.214844 344.472656 C 135.746094 354.171875 136.132812 359.890625 138.101562 362.988281 C 137.53125 365.109375 137.066406 367.246094 136.6875 369.371094 " fill-opacity="1" fill-rule="nonzero"/><path fill="#294da7" d="M 240.054688 364.953125 C 241.554688 361.054688 242.996094 357.09375 244.363281 353.101562 C 242.996094 357.09375 241.554688 361.054688 240.054688 364.953125 " fill-opacity="1" fill-rule="nonzero"/><path fill="#3f4143" d="M 234.546875 208.894531 C 234.511719 208.863281 234.472656 208.828125 234.4375 208.796875 C 234.472656 208.828125 234.511719 208.863281 234.546875 208.894531 " fill-opacity="1" fill-rule="nonzero"/><path fill="#0e0d12" d="M 242.046875 216.304688 C 239.710938 213.660156 237.207031 211.183594 234.546875 208.894531 C 237.207031 211.183594 239.710938 213.660156 242.046875 216.304688 " fill-opacity="1" fill-rule="nonzero"/><path fill="#3053ac" d="M 234.4375 208.800781 C 228.613281 203.808594 222.042969 199.730469 214.941406 196.765625 C 222.042969 199.730469 228.613281 203.808594 234.4375 208.800781 " fill-opacity="1" fill-rule="nonzero"/><path fill="#0e1317" d="M 214.941406 196.769531 C 206.519531 193.257812 197.339844 191.3125 187.734375 191.28125 C 187.65625 191.28125 187.574219 191.28125 187.5 191.28125 C 197.195312 191.28125 206.453125 193.230469 214.941406 196.769531 " fill-opacity="1" fill-rule="nonzero"/><path fill="#df1f25" d="M 240.058594 364.953125 L 240.058594 364.949219 C 252.234375 333.359375 260.175781 297.382812 261.484375 275.066406 C 254.828125 269.363281 246.945312 267.226562 240.386719 267.226562 C 239.375 267.226562 238.390625 267.273438 237.445312 267.375 C 236.902344 225.328125 214.875 191.472656 187.738281 191.28125 C 197.34375 191.3125 206.519531 193.257812 214.941406 196.769531 C 222.042969 199.730469 228.609375 203.8125 234.4375 208.800781 C 234.472656 208.832031 234.507812 208.863281 234.542969 208.894531 C 237.207031 211.183594 239.710938 213.664062 242.046875 216.308594 C 242.140625 216.414062 242.230469 216.519531 242.324219 216.625 C 254.347656 230.429688 261.683594 248.796875 261.683594 268.957031 C 261.683594 287.941406 255.171875 321.542969 244.367188 353.097656 C 243 357.089844 241.558594 361.050781 240.058594 364.953125 M 238.277344 358.796875 C 236.574219 353.84375 234.210938 349.066406 231.003906 344.792969 L 227.660156 344.675781 C 228.765625 339.464844 229.792969 334.230469 230.730469 329.066406 C 231.960938 333.390625 233.632812 338.445312 235.785156 344.472656 C 238.058594 350.832031 238.675781 355.480469 238.277344 358.796875 M 240.636719 313.917969 C 238.175781 313.921875 235.648438 312.917969 233.734375 310.6875 C 235.613281 297.800781 236.828125 285.921875 237.269531 276.367188 C 251.332031 286.660156 249.84375 298.070312 249.136719 306.421875 C 248.746094 311.058594 244.789062 313.917969 240.636719 313.917969 " fill-opacity="1" fill-rule="nonzero"/><path fill="#f57a1e" d="M 236.335938 372.230469 C 236.015625 371.496094 235.683594 370.78125 235.335938 370.085938 C 235.730469 370.710938 236.058594 371.433594 236.335938 372.230469 M 240.058594 364.945312 C 239.566406 362.886719 238.972656 360.828125 238.277344 358.800781 C 238.675781 355.480469 238.058594 350.832031 235.785156 344.472656 C 233.628906 338.445312 231.964844 333.394531 230.730469 329.0625 C 231.867188 322.804688 232.871094 316.640625 233.738281 310.6875 C 235.644531 312.917969 238.175781 313.921875 240.640625 313.921875 C 244.792969 313.921875 248.742188 311.058594 249.136719 306.417969 C 249.84375 298.070312 251.328125 286.664062 237.265625 276.367188 C 237.390625 273.703125 237.457031 271.222656 237.457031 268.953125 C 237.457031 268.425781 237.453125 267.898438 237.445312 267.371094 C 238.386719 267.273438 239.371094 267.222656 240.390625 267.222656 C 246.941406 267.222656 254.824219 269.363281 261.484375 275.066406 C 260.175781 297.386719 252.234375 333.359375 240.058594 364.945312 " fill-opacity="1" fill-rule="nonzero"/><path fill="#81a8d8" d="M 10.277344 231.21875 L 15.675781 232.570312 C 15.675781 232.570312 25.390625 220.265625 32.167969 205.933594 C 43.636719 202.402344 55.5625 204.875 63.503906 207.542969 C 62.722656 209.03125 61.96875 210.535156 61.359375 212.101562 C 60.753906 213.65625 60.285156 215.253906 59.855469 216.863281 C 53.050781 213.273438 44.089844 209.582031 38.160156 211.117188 C 28.808594 222.457031 17.839844 238.019531 17.839844 238.019531 L 12.289062 237.566406 L 10.277344 231.21875 " fill-opacity="1" fill-rule="nonzero"/><path fill="#475869" d="M 72.011719 233.3125 L 68.074219 236.09375 L 53.121094 214.789062 L 57.167969 203.3125 L 65.816406 205.347656 L 68.503906 210.253906 L 63.289062 217.359375 L 72.011719 233.3125 " fill-opacity="1" fill-rule="nonzero"/><path fill="#314153" d="M 20.371094 241.398438 L 24.382812 241.746094 L 48.511719 224.664062 L 49.089844 217.292969 L 53.273438 214.332031 L 59.300781 222.84375 L 60.714844 224.839844 L 62.429688 227.269531 L 63.84375 229.265625 L 69.867188 237.777344 L 65.683594 240.738281 L 58.546875 238.835938 L 34.414062 255.917969 L 33.410156 259.824219 L 29.167969 262.824219 L 23.503906 254.828125 L 21.785156 252.40625 L 16.121094 244.402344 L 20.371094 241.398438 " fill-opacity="1" fill-rule="nonzero"/><path fill="#314153" d="M 283.859375 207.292969 L 282.394531 203.808594 C 295.769531 198.171875 312.722656 207.867188 313.441406 208.277344 L 311.542969 211.554688 C 311.378906 211.460938 295.492188 202.394531 283.859375 207.292969 " fill-opacity="1" fill-rule="nonzero"/><path fill="#81a8d8" d="M 316.433594 235.335938 L 323.558594 223.261719 L 249.992188 179.875 C 236.777344 172.078125 221.683594 167.960938 206.339844 167.960938 L 187.5 167.960938 L 187.5 181.984375 L 206.339844 181.984375 C 219.183594 181.984375 231.8125 185.429688 242.871094 191.949219 L 316.433594 235.335938 " fill-opacity="1" fill-rule="nonzero"/><path fill="#81a8d8" d="M 364.722656 231.21875 L 359.324219 232.570312 C 359.324219 232.570312 349.613281 220.265625 342.832031 205.933594 C 331.363281 202.402344 319.433594 204.875 311.5 207.542969 C 312.277344 209.03125 313.03125 210.535156 313.640625 212.101562 C 314.246094 213.65625 314.714844 215.253906 315.140625 216.863281 C 321.949219 213.273438 330.914062 209.582031 336.839844 211.117188 C 346.191406 222.457031 357.164062 238.019531 357.164062 238.019531 L 362.707031 237.566406 L 364.722656 231.21875 " fill-opacity="1" fill-rule="nonzero"/><path fill="#475869" d="M 302.988281 233.3125 L 306.921875 236.09375 L 321.878906 214.789062 L 317.828125 203.3125 L 309.179688 205.347656 L 306.496094 210.253906 L 311.707031 217.359375 L 302.988281 233.3125 " fill-opacity="1" fill-rule="nonzero"/><path fill="#314153" d="M 354.628906 241.398438 L 350.617188 241.746094 L 326.488281 224.664062 L 325.90625 217.292969 L 321.726562 214.332031 L 315.699219 222.84375 L 314.289062 224.839844 L 312.570312 227.269531 L 311.15625 229.265625 L 305.128906 237.777344 L 309.3125 240.738281 L 316.453125 238.835938 L 340.585938 255.917969 L 341.589844 259.824219 L 345.832031 262.824219 L 351.496094 254.828125 L 353.214844 252.40625 L 358.878906 244.402344 L 354.628906 241.398438 " fill-opacity="1" fill-rule="nonzero"/><path fill="#212b37" d="M 164.292969 155.757812 C 153.734375 155.757812 145.179688 149.824219 145.179688 142.511719 C 145.179688 135.195312 153.734375 129.261719 164.292969 129.261719 C 174.851562 129.261719 183.410156 135.195312 183.410156 142.511719 C 183.410156 149.824219 174.851562 155.757812 164.292969 155.757812 " fill-opacity="1" fill-rule="nonzero"/><path fill="#212b37" d="M 210.710938 155.757812 C 200.148438 155.757812 191.589844 149.824219 191.589844 142.511719 C 191.589844 135.195312 200.148438 129.261719 210.710938 129.261719 C 221.265625 129.261719 229.824219 135.195312 229.824219 142.511719 C 229.824219 149.824219 221.265625 155.757812 210.710938 155.757812 " fill-opacity="1" fill-rule="nonzero"/><path fill="#1d2731" d="M 197.773438 184.785156 L 177.226562 184.785156 L 177.226562 164.234375 L 197.773438 164.234375 L 197.773438 184.785156 " fill-opacity="1" fill-rule="nonzero"/><path fill="#478fd0" d="M 231.707031 436.449219 L 115.578125 436.449219 L 115.578125 485.246094 C 115.578125 513.820312 136.265625 536.988281 161.78125 536.988281 L 187.632812 532.777344 L 213.484375 536.988281 C 239.003906 536.988281 259.6875 513.820312 259.6875 485.246094 L 259.6875 436.449219 L 231.707031 436.449219 " fill-opacity="1" fill-rule="nonzero"/><path fill="#212b37" d="M 213.484375 536.984375 L 187.636719 532.777344 L 161.785156 536.984375 C 161.765625 536.984375 161.738281 536.984375 161.714844 536.984375 C 161.738281 536.984375 161.757812 536.984375 161.785156 536.984375 L 187.636719 532.777344 L 213.484375 536.984375 C 229.433594 536.984375 243.496094 527.933594 251.796875 514.171875 C 243.496094 527.933594 229.433594 536.984375 213.484375 536.984375 " fill-opacity="1" fill-rule="nonzero"/><path fill="#212b37" d="M 161.691406 536.984375 C 161.675781 536.984375 161.664062 536.984375 161.644531 536.984375 C 161.660156 536.984375 161.679688 536.984375 161.691406 536.984375 M 161.621094 536.984375 C 161.605469 536.984375 161.589844 536.984375 161.574219 536.984375 C 161.589844 536.984375 161.605469 536.984375 161.621094 536.984375 M 161.554688 536.984375 C 161.535156 536.984375 161.511719 536.984375 161.492188 536.984375 C 161.511719 536.984375 161.535156 536.984375 161.554688 536.984375 M 161.476562 536.984375 C 161.453125 536.984375 161.433594 536.984375 161.414062 536.984375 C 161.433594 536.984375 161.453125 536.984375 161.476562 536.984375 M 161.394531 536.984375 C 161.378906 536.984375 161.363281 536.984375 161.347656 536.984375 C 161.363281 536.984375 161.378906 536.984375 161.394531 536.984375 M 161.320312 536.984375 C 161.308594 536.984375 161.292969 536.984375 161.277344 536.984375 C 161.292969 536.984375 161.308594 536.984375 161.320312 536.984375 M 161.253906 536.984375 C 161.238281 536.984375 161.21875 536.980469 161.199219 536.980469 C 161.214844 536.980469 161.238281 536.984375 161.253906 536.984375 M 161.164062 536.980469 C 161.152344 536.980469 161.132812 536.980469 161.121094 536.980469 C 161.132812 536.980469 161.152344 536.980469 161.164062 536.980469 M 161.089844 536.980469 C 161.078125 536.980469 161.066406 536.980469 161.054688 536.980469 C 161.066406 536.980469 161.078125 536.980469 161.089844 536.980469 M 161.023438 536.980469 C 161.007812 536.976562 160.996094 536.976562 160.980469 536.976562 C 161 536.976562 161.007812 536.976562 161.023438 536.980469 M 160.953125 536.976562 C 160.941406 536.976562 160.921875 536.976562 160.90625 536.976562 C 160.921875 536.976562 160.9375 536.976562 160.953125 536.976562 M 160.867188 536.976562 C 160.851562 536.976562 160.835938 536.972656 160.820312 536.972656 C 160.835938 536.972656 160.851562 536.976562 160.867188 536.976562 M 160.789062 536.972656 C 160.78125 536.972656 160.765625 536.972656 160.757812 536.972656 C 160.765625 536.972656 160.78125 536.972656 160.789062 536.972656 M 160.722656 536.972656 C 160.710938 536.972656 160.703125 536.96875 160.691406 536.96875 C 160.699219 536.96875 160.710938 536.972656 160.722656 536.972656 M 160.652344 536.96875 C 160.648438 536.96875 160.640625 536.96875 160.628906 536.96875 C 160.640625 536.96875 160.644531 536.96875 160.652344 536.96875 M 160.542969 536.964844 C 160.539062 536.964844 160.535156 536.964844 160.53125 536.964844 C 160.535156 536.964844 160.539062 536.964844 160.542969 536.964844 M 160.484375 536.964844 C 160.476562 536.964844 160.46875 536.964844 160.464844 536.964844 C 160.46875 536.964844 160.476562 536.964844 160.484375 536.964844 M 160.417969 536.960938 C 160.410156 536.960938 160.410156 536.960938 160.402344 536.960938 C 160.40625 536.960938 160.414062 536.960938 160.417969 536.960938 M 160.355469 536.957031 C 160.355469 536.957031 160.355469 536.957031 160.351562 536.957031 L 160.355469 536.957031 M 160.179688 536.953125 C 160.179688 536.953125 160.179688 536.953125 160.171875 536.953125 C 160.179688 536.953125 160.179688 536.953125 160.179688 536.953125 M 160.121094 536.953125 L 160.117188 536.953125 L 160.121094 536.953125 " fill-opacity="1" fill-rule="nonzero"/><path fill="#396ebf" d="M 213.484375 536.988281 L 187.632812 532.777344 L 161.78125 536.988281 C 161.757812 536.988281 161.734375 536.988281 161.714844 536.988281 C 161.707031 536.988281 161.699219 536.988281 161.691406 536.988281 C 161.679688 536.988281 161.660156 536.988281 161.648438 536.988281 C 161.636719 536.988281 161.628906 536.988281 161.621094 536.984375 C 161.601562 536.984375 161.589844 536.984375 161.574219 536.984375 C 161.566406 536.984375 161.558594 536.984375 161.554688 536.984375 C 161.53125 536.984375 161.511719 536.984375 161.492188 536.984375 C 161.484375 536.984375 161.480469 536.984375 161.476562 536.984375 C 161.453125 536.984375 161.433594 536.984375 161.414062 536.984375 C 161.40625 536.984375 161.398438 536.984375 161.390625 536.984375 C 161.382812 536.984375 161.363281 536.984375 161.347656 536.984375 C 161.339844 536.984375 161.332031 536.984375 161.320312 536.984375 C 161.308594 536.984375 161.292969 536.984375 161.277344 536.984375 C 161.269531 536.984375 161.257812 536.984375 161.253906 536.984375 C 161.238281 536.984375 161.21875 536.980469 161.199219 536.980469 C 161.1875 536.980469 161.175781 536.980469 161.167969 536.980469 C 161.152344 536.980469 161.132812 536.980469 161.121094 536.980469 C 161.109375 536.980469 161.097656 536.980469 161.09375 536.980469 C 161.078125 536.980469 161.066406 536.980469 161.050781 536.980469 C 161.042969 536.980469 161.03125 536.980469 161.023438 536.980469 C 161.007812 536.976562 161 536.976562 160.980469 536.976562 C 160.972656 536.976562 160.960938 536.976562 160.957031 536.976562 C 160.9375 536.976562 160.925781 536.976562 160.90625 536.976562 C 160.890625 536.976562 160.878906 536.976562 160.867188 536.976562 C 160.851562 536.976562 160.835938 536.972656 160.820312 536.972656 C 160.8125 536.972656 160.800781 536.972656 160.792969 536.972656 C 160.78125 536.972656 160.765625 536.972656 160.753906 536.972656 C 160.742188 536.972656 160.734375 536.972656 160.722656 536.972656 C 160.710938 536.972656 160.699219 536.96875 160.691406 536.96875 C 160.675781 536.96875 160.667969 536.96875 160.65625 536.96875 C 160.644531 536.96875 160.640625 536.96875 160.628906 536.96875 C 160.601562 536.96875 160.574219 536.964844 160.539062 536.964844 C 160.535156 536.964844 160.535156 536.964844 160.53125 536.964844 C 160.515625 536.964844 160.5 536.964844 160.484375 536.964844 C 160.476562 536.964844 160.46875 536.964844 160.460938 536.964844 C 160.453125 536.960938 160.433594 536.960938 160.417969 536.960938 C 160.414062 536.960938 160.40625 536.960938 160.402344 536.960938 C 160.386719 536.960938 160.375 536.960938 160.355469 536.957031 L 160.351562 536.957031 C 160.296875 536.957031 160.238281 536.953125 160.179688 536.953125 C 160.175781 536.953125 160.175781 536.953125 160.171875 536.953125 C 160.15625 536.949219 160.136719 536.949219 160.121094 536.949219 L 160.117188 536.949219 C 140.460938 536.171875 123.9375 521.628906 117.972656 501.667969 C 131.226562 514.980469 153.238281 519.476562 174.417969 519.476562 C 185.234375 519.476562 195.84375 518.300781 204.949219 516.53125 C 211.929688 515.175781 217.289062 512.9375 221.402344 510.277344 C 242.160156 504.898438 253.59375 493.074219 259.6875 480.007812 L 259.6875 485.246094 C 259.6875 492.730469 258.265625 499.84375 255.710938 506.273438 C 254.605469 509.042969 253.296875 511.6875 251.792969 514.171875 C 243.496094 527.9375 229.429688 536.988281 213.484375 536.988281 " fill-opacity="1" fill-rule="nonzero"/><path fill="#314153" d="M 351.128906 256.828125 C 322.800781 250.171875 329.96875 268.785156 329.96875 268.785156 C 329.96875 268.785156 319.332031 311.960938 302.621094 344.410156 C 271.777344 395.066406 213.027344 422.042969 194.464844 429.574219 L 187.503906 429.742188 L 180.539062 429.574219 C 161.972656 422.042969 103.230469 395.066406 72.382812 344.410156 C 55.667969 311.960938 45.03125 268.785156 45.03125 268.785156 C 45.03125 268.785156 52.199219 250.171875 23.875 256.828125 L 22.546875 268 C 22.546875 268 25.027344 326.691406 45.261719 370.261719 C 57.898438 397.472656 88.082031 425.921875 108.96875 443.449219 C 107.863281 468.3125 114.890625 514.257812 182.113281 513.316406 C 184.015625 513.3125 190.984375 513.3125 192.882812 513.316406 C 260.109375 514.257812 267.136719 468.3125 266.035156 443.449219 C 286.921875 425.921875 317.101562 397.472656 329.738281 370.261719 C 349.972656 326.691406 352.453125 268 352.453125 268 L 351.128906 256.828125 " fill-opacity="1" fill-rule="nonzero"/><path fill="#a5a7a6" d="M 351.066406 256.8125 C 351.058594 256.808594 351.046875 256.808594 351.039062 256.804688 C 351.046875 256.808594 351.058594 256.808594 351.066406 256.8125 M 350.976562 256.789062 C 350.972656 256.789062 350.964844 256.785156 350.964844 256.785156 C 350.96875 256.785156 350.972656 256.789062 350.976562 256.789062 " fill-opacity="1" fill-rule="nonzero"/><path fill="#396ebf" d="M 180.089844 513.328125 C 178.367188 513.328125 176.6875 513.296875 175.046875 513.238281 C 176.691406 513.296875 178.367188 513.328125 180.089844 513.328125 C 180.296875 513.328125 180.5 513.328125 180.710938 513.328125 C 180.503906 513.328125 180.296875 513.328125 180.089844 513.328125 M 194.910156 513.328125 C 194.242188 513.328125 193.566406 513.324219 192.882812 513.316406 C 191.933594 513.316406 189.71875 513.316406 187.5 513.316406 C 185.28125 513.316406 183.0625 513.316406 182.113281 513.316406 C 182.050781 513.316406 181.984375 513.320312 181.921875 513.320312 C 181.984375 513.320312 182.046875 513.316406 182.113281 513.316406 C 183.0625 513.316406 185.28125 513.316406 187.5 513.316406 C 189.71875 513.316406 191.933594 513.316406 192.882812 513.316406 C 193.566406 513.324219 194.242188 513.328125 194.910156 513.328125 C 205.101562 513.328125 213.867188 512.230469 221.402344 510.277344 C 213.867188 512.230469 205.101562 513.328125 194.910156 513.328125 M 181.855469 513.320312 C 181.875 513.320312 181.882812 513.320312 181.898438 513.320312 C 181.886719 513.320312 181.875 513.320312 181.855469 513.320312 M 175.039062 513.238281 C 175.015625 513.238281 174.988281 513.234375 174.960938 513.234375 C 174.988281 513.234375 175.007812 513.238281 175.039062 513.238281 M 174.945312 513.234375 C 174.921875 513.234375 174.898438 513.230469 174.875 513.230469 C 174.898438 513.230469 174.921875 513.234375 174.945312 513.234375 M 174.851562 513.230469 C 174.828125 513.230469 174.800781 513.226562 174.78125 513.226562 C 174.804688 513.226562 174.824219 513.230469 174.851562 513.230469 M 174.757812 513.226562 C 174.734375 513.222656 174.714844 513.222656 174.691406 513.222656 C 174.714844 513.222656 174.734375 513.222656 174.757812 513.226562 M 174.664062 513.222656 C 174.640625 513.21875 174.617188 513.21875 174.597656 513.21875 C 174.617188 513.21875 174.640625 513.21875 174.664062 513.222656 M 174.570312 513.214844 C 174.550781 513.214844 174.527344 513.214844 174.507812 513.214844 C 174.53125 513.214844 174.546875 513.214844 174.570312 513.214844 M 174.476562 513.214844 C 174.453125 513.214844 174.433594 513.214844 174.414062 513.214844 C 174.433594 513.214844 174.453125 513.214844 174.476562 513.214844 M 174.378906 513.210938 C 174.363281 513.210938 174.34375 513.210938 174.320312 513.207031 C 174.34375 513.210938 174.363281 513.210938 174.378906 513.210938 M 174.28125 513.207031 C 174.265625 513.207031 174.246094 513.203125 174.230469 513.203125 C 174.246094 513.203125 174.265625 513.207031 174.28125 513.207031 M 174.183594 513.203125 C 174.167969 513.199219 174.15625 513.199219 174.136719 513.199219 C 174.15625 513.199219 174.167969 513.199219 174.183594 513.203125 M 174.085938 513.195312 C 174.074219 513.195312 174.058594 513.195312 174.042969 513.195312 C 174.058594 513.195312 174.074219 513.195312 174.085938 513.195312 M 173.996094 513.195312 C 173.980469 513.195312 173.964844 513.195312 173.949219 513.195312 C 173.96875 513.195312 173.980469 513.195312 173.996094 513.195312 M 173.859375 513.183594 C 173.851562 513.183594 173.839844 513.183594 173.835938 513.183594 C 173.839844 513.183594 173.851562 513.183594 173.859375 513.183594 M 173.765625 513.183594 C 173.757812 513.183594 173.746094 513.183594 173.738281 513.183594 C 173.746094 513.183594 173.753906 513.183594 173.765625 513.183594 M 173.671875 513.179688 C 173.660156 513.179688 173.65625 513.175781 173.644531 513.175781 C 173.65625 513.175781 173.660156 513.175781 173.671875 513.179688 M 173.578125 513.171875 C 173.570312 513.171875 173.5625 513.171875 173.554688 513.171875 C 173.5625 513.171875 173.570312 513.171875 173.578125 513.171875 M 173.480469 513.167969 C 173.472656 513.167969 173.46875 513.167969 173.464844 513.167969 C 173.46875 513.167969 173.46875 513.167969 173.480469 513.167969 M 173.386719 513.160156 C 173.378906 513.160156 173.375 513.160156 173.371094 513.160156 C 173.371094 513.160156 173.382812 513.160156 173.386719 513.160156 M 173.289062 513.160156 C 173.285156 513.160156 173.28125 513.160156 173.277344 513.160156 C 173.28125 513.160156 173.285156 513.160156 173.289062 513.160156 M 173.195312 513.15625 C 173.1875 513.152344 173.1875 513.152344 173.183594 513.152344 C 173.1875 513.152344 173.1875 513.152344 173.195312 513.15625 M 173.097656 513.148438 C 173.09375 513.148438 173.09375 513.148438 173.09375 513.148438 L 173.097656 513.148438 M 172.996094 513.144531 L 172.996094 513.140625 L 172.996094 513.144531 " fill-opacity="1" fill-rule="nonzero"/><path fill="#212b37" d="M 194.910156 513.328125 C 194.242188 513.328125 193.566406 513.324219 192.882812 513.316406 C 191.933594 513.316406 189.714844 513.316406 187.503906 513.316406 C 185.285156 513.316406 183.0625 513.316406 182.113281 513.316406 C 182.050781 513.316406 181.988281 513.320312 181.921875 513.320312 C 181.914062 513.320312 181.910156 513.320312 181.898438 513.320312 C 181.882812 513.320312 181.875 513.320312 181.855469 513.320312 C 181.472656 513.320312 181.09375 513.324219 180.710938 513.328125 C 180.503906 513.328125 180.296875 513.328125 180.089844 513.328125 C 178.367188 513.328125 176.6875 513.296875 175.046875 513.238281 C 175.046875 513.238281 175.046875 513.238281 175.039062 513.238281 C 175.007812 513.238281 174.988281 513.234375 174.960938 513.234375 C 174.957031 513.234375 174.949219 513.234375 174.945312 513.234375 C 174.921875 513.234375 174.898438 513.230469 174.875 513.230469 C 174.863281 513.230469 174.859375 513.230469 174.851562 513.230469 C 174.828125 513.230469 174.804688 513.226562 174.78125 513.226562 C 174.773438 513.226562 174.765625 513.226562 174.761719 513.226562 C 174.734375 513.222656 174.714844 513.222656 174.691406 513.222656 C 174.683594 513.222656 174.671875 513.222656 174.664062 513.222656 C 174.644531 513.21875 174.617188 513.21875 174.597656 513.21875 C 174.589844 513.21875 174.582031 513.21875 174.570312 513.214844 C 174.550781 513.214844 174.53125 513.214844 174.507812 513.214844 C 174.496094 513.214844 174.488281 513.210938 174.476562 513.210938 C 174.453125 513.210938 174.4375 513.210938 174.417969 513.210938 C 174.398438 513.210938 174.394531 513.210938 174.378906 513.210938 C 174.363281 513.210938 174.34375 513.210938 174.320312 513.207031 C 174.308594 513.207031 174.296875 513.207031 174.285156 513.207031 C 174.265625 513.207031 174.246094 513.203125 174.230469 513.203125 C 174.210938 513.203125 174.199219 513.203125 174.183594 513.203125 C 174.171875 513.199219 174.15625 513.199219 174.136719 513.199219 C 174.125 513.199219 174.105469 513.199219 174.089844 513.195312 C 174.074219 513.195312 174.058594 513.195312 174.042969 513.195312 C 174.027344 513.195312 174.015625 513.191406 173.996094 513.191406 C 173.976562 513.191406 173.96875 513.191406 173.953125 513.191406 C 173.921875 513.1875 173.894531 513.1875 173.863281 513.183594 C 173.851562 513.183594 173.84375 513.183594 173.835938 513.183594 C 173.8125 513.183594 173.789062 513.179688 173.769531 513.179688 C 173.753906 513.179688 173.75 513.179688 173.738281 513.179688 C 173.714844 513.179688 173.691406 513.179688 173.675781 513.179688 C 173.660156 513.175781 173.652344 513.175781 173.644531 513.175781 C 173.621094 513.175781 173.597656 513.175781 173.578125 513.171875 C 173.570312 513.171875 173.5625 513.171875 173.558594 513.171875 C 173.527344 513.171875 173.503906 513.167969 173.484375 513.167969 C 173.472656 513.167969 173.472656 513.167969 173.460938 513.167969 C 173.4375 513.164062 173.414062 513.164062 173.386719 513.160156 C 173.382812 513.160156 173.371094 513.160156 173.367188 513.160156 C 173.34375 513.160156 173.316406 513.160156 173.292969 513.160156 C 173.289062 513.160156 173.28125 513.160156 173.277344 513.160156 C 173.25 513.15625 173.21875 513.15625 173.199219 513.15625 C 173.191406 513.152344 173.191406 513.152344 173.1875 513.152344 C 173.15625 513.152344 173.125 513.148438 173.097656 513.148438 L 173.09375 513.148438 C 173.066406 513.144531 173.027344 513.144531 172.996094 513.144531 L 172.996094 513.140625 C 142.808594 511.511719 126.472656 499.410156 117.855469 484.8125 C 133.890625 492.5625 154.910156 496.183594 176.210938 496.183594 C 187.601562 496.183594 199.074219 495.144531 209.902344 493.15625 C 252.429688 485.332031 257.121094 431.476562 257.121094 431.476562 C 257.121094 431.476562 274.46875 420.890625 305.246094 388.671875 C 332.675781 359.960938 344.269531 274.234375 346.46875 255.910156 C 347.855469 256.128906 349.347656 256.414062 350.957031 256.789062 C 350.960938 256.789062 350.96875 256.789062 350.976562 256.789062 C 350.996094 256.792969 351.015625 256.804688 351.03125 256.808594 C 351.046875 256.8125 351.054688 256.8125 351.066406 256.8125 C 351.085938 256.820312 351.105469 256.824219 351.128906 256.828125 L 352.453125 268 C 352.453125 268 349.972656 326.691406 329.738281 370.261719 C 317.101562 397.472656 286.921875 425.921875 266.035156 443.449219 C 266.09375 444.867188 266.132812 446.355469 266.132812 447.898438 C 266.132812 457.453125 264.753906 469.15625 259.683594 480.011719 C 253.59375 493.074219 242.164062 504.902344 221.402344 510.277344 C 213.863281 512.230469 205.101562 513.328125 194.910156 513.328125 " fill-opacity="1" fill-rule="nonzero"/><path fill="#396ebf" d="M 241.761719 404.609375 C 241.761719 404.601562 241.753906 404.601562 241.753906 404.597656 C 244.511719 402.785156 247.296875 400.878906 250.097656 398.878906 L 250.097656 398.882812 C 250.097656 398.890625 250.097656 398.890625 250.097656 398.890625 C 247.296875 400.894531 244.511719 402.800781 241.761719 404.609375 " fill-opacity="1" fill-rule="nonzero"/><path fill="#212b37" d="M 191.671875 468.253906 C 187.257812 468.253906 182.613281 468.03125 177.730469 467.609375 C 126.957031 460.007812 130.726562 413.476562 130.726562 413.476562 C 130.726562 413.476562 99.308594 397.417969 72.382812 366.582031 C 45.453125 335.742188 34.28125 260.722656 34.28125 260.722656 C 34.28125 260.722656 37.515625 259.742188 43.359375 257.996094 C 47.660156 261.878906 45.050781 268.730469 45.03125 268.785156 C 45.03125 268.785156 55.664062 311.960938 72.382812 344.410156 C 88.90625 371.554688 113.449219 391.898438 135.523438 406.097656 C 132.925781 417.308594 135.359375 427.511719 137.238281 436.078125 C 138.386719 429.730469 141.6875 425.273438 141.6875 425.273438 C 141.6875 425.273438 143.753906 450.550781 163.035156 463.757812 C 162.234375 460.496094 161.585938 456.957031 161.085938 453.730469 C 160.152344 447.707031 159.722656 442.761719 159.714844 442.683594 C 159.734375 442.75 160.886719 446.285156 164.894531 450.953125 C 166.214844 452.492188 167.84375 454.15625 169.84375 455.859375 C 172.949219 458.496094 176.941406 461.234375 182.058594 463.757812 C 182.679688 463.996094 183.300781 464.191406 183.929688 464.355469 C 185.785156 464.835938 187.671875 465.003906 189.589844 465.003906 C 191.980469 465.003906 194.402344 464.738281 196.839844 464.472656 C 199.273438 464.207031 201.71875 463.941406 204.152344 463.941406 C 207.242188 463.941406 210.308594 464.375 213.292969 465.789062 C 213.300781 465.59375 213.308594 465.398438 213.308594 465.199219 C 213.300781 463.933594 213.035156 462.589844 212.480469 461.28125 C 212.480469 461.277344 212.480469 461.277344 212.476562 461.273438 C 211.195312 458.25 208.375 455.375 203.640625 453.855469 C 205.042969 453.402344 206.371094 453.230469 207.660156 453.230469 C 209.628906 453.230469 211.535156 453.625 213.578125 454.015625 C 215.613281 454.410156 217.78125 454.800781 220.269531 454.800781 C 221.398438 454.800781 222.597656 454.71875 223.871094 454.519531 C 225.421875 454.28125 227.089844 453.871094 228.921875 453.226562 C 229.042969 453.183594 229.164062 453.136719 229.285156 453.09375 C 229.269531 453.070312 229.253906 453.046875 229.238281 453.019531 C 229.226562 453.011719 229.222656 453 229.210938 452.988281 C 225.464844 447.875 225.152344 441.019531 228.742188 435.789062 L 235.972656 425.273438 C 236 425.3125 239.277344 429.761719 240.421875 436.078125 C 240.996094 433.46875 241.617188 430.707031 242.136719 427.8125 C 242.988281 423.035156 243.550781 417.894531 243.117188 412.472656 C 243.117188 412.472656 243.117188 412.472656 243.117188 412.46875 C 242.910156 409.90625 242.484375 407.285156 241.761719 404.609375 C 244.515625 402.800781 247.296875 400.894531 250.101562 398.894531 C 250.792969 451.003906 230.265625 468.253906 191.671875 468.253906 " fill-opacity="1" fill-rule="nonzero"/><path fill="#ed8f70" d="M 231.460938 363.59375 C 223.933594 352.980469 212.265625 346.03125 199.464844 343.699219 L 199.15625 343.648438 C 199.15625 343.648438 197.632812 340.769531 194.246094 338.398438 C 193.566406 335.011719 188.828125 334.503906 188.828125 334.503906 C 188.828125 334.503906 184.089844 335.011719 183.410156 338.398438 C 180.027344 340.769531 178.503906 343.648438 178.503906 343.648438 L 178.191406 343.699219 C 165.390625 346.03125 153.722656 352.980469 146.195312 363.59375 C 139.207031 373.441406 134.457031 387.882812 139.058594 408.316406 C 157.34375 442.511719 188.828125 414.414062 188.828125 414.414062 C 188.828125 414.414062 220.3125 442.511719 238.597656 408.316406 C 243.199219 387.882812 238.449219 373.441406 231.460938 363.59375 " fill-opacity="1" fill-rule="nonzero"/><path fill="#e9744f" d="M 236.542969 392.683594 C 236.28125 392.253906 236.003906 391.820312 235.71875 391.386719 C 234.597656 387.445312 233.167969 384.019531 231.53125 381.039062 C 228.410156 375.359375 224.546875 371.300781 220.644531 368.402344 C 220.058594 364.671875 219.09375 361.269531 217.882812 358.175781 C 225.066406 360.394531 231.730469 364.058594 235.328125 370.0625 C 235.332031 370.070312 235.332031 370.074219 235.335938 370.078125 C 235.683594 370.78125 236.011719 371.496094 236.335938 372.230469 C 238.101562 377.378906 237.546875 385.667969 236.542969 392.683594 " fill-opacity="1" fill-rule="nonzero"/><path fill="#314153" d="M 231.003906 344.792969 L 199.46875 343.699219 C 199.46875 343.699219 197.285156 347.792969 188.832031 347.792969 C 180.382812 347.792969 178.191406 343.699219 178.191406 343.699219 L 146.65625 344.792969 C 128.925781 368.414062 137.238281 407.410156 137.238281 407.410156 L 143.589844 405.546875 C 143.589844 405.546875 136.839844 378.851562 142.332031 370.0625 C 152.738281 352.6875 188.832031 354.921875 188.832031 354.921875 C 188.832031 354.921875 224.925781 352.6875 235.332031 370.0625 C 240.824219 378.851562 234.074219 405.546875 234.074219 405.546875 L 240.425781 407.410156 C 240.425781 407.410156 248.738281 368.414062 231.003906 344.792969 " fill-opacity="1" fill-rule="nonzero"/><path fill="#8a383b" d="M 235.71875 391.386719 C 227.339844 361.929688 201.691406 361.167969 201.691406 361.167969 L 175.964844 361.167969 C 175.964844 361.167969 150.316406 361.929688 141.941406 391.386719 C 130.765625 408.398438 134.566406 423.890625 137.238281 436.078125 C 138.386719 429.726562 141.6875 425.273438 141.6875 425.273438 C 141.6875 425.273438 143.753906 450.550781 163.03125 463.761719 C 160.726562 454.363281 159.714844 442.683594 159.714844 442.683594 C 159.714844 442.683594 163.523438 454.617188 182.054688 463.761719 C 186.777344 465.574219 191.789062 465.027344 196.835938 464.472656 C 202.382812 463.871094 207.976562 463.261719 213.289062 465.789062 C 213.539062 461.472656 210.75 456.140625 203.640625 453.855469 C 207.171875 452.714844 210.195312 453.363281 213.574219 454.015625 C 217.726562 454.8125 222.425781 455.613281 229.285156 453.089844 C 229.257812 453.058594 229.234375 453.019531 229.210938 452.988281 C 225.464844 447.871094 225.148438 441.015625 228.742188 435.792969 L 235.972656 425.273438 C 235.972656 425.273438 239.273438 429.726562 240.421875 436.078125 C 243.09375 423.890625 246.890625 408.398438 235.71875 391.386719 " fill-opacity="1" fill-rule="nonzero"/><path fill="#161d24" d="M 213.308594 465.199219 C 213.296875 463.929688 213.035156 462.589844 212.476562 461.28125 C 213.035156 462.589844 213.296875 463.929688 213.308594 465.199219 M 183.933594 464.359375 C 183.300781 464.195312 182.675781 463.996094 182.058594 463.757812 C 176.941406 461.234375 172.949219 458.496094 169.84375 455.855469 C 172.949219 458.496094 176.941406 461.234375 182.058594 463.757812 C 182.675781 463.996094 183.300781 464.195312 183.933594 464.359375 M 163.035156 463.757812 C 162.234375 460.492188 161.589844 456.960938 161.085938 453.726562 C 161.589844 456.960938 162.234375 460.492188 163.035156 463.757812 M 220.273438 454.800781 C 217.78125 454.800781 215.613281 454.40625 213.578125 454.015625 C 211.535156 453.625 209.632812 453.230469 207.664062 453.230469 C 206.371094 453.230469 205.046875 453.402344 203.640625 453.855469 C 203.640625 453.851562 203.640625 453.855469 203.640625 453.851562 C 205.046875 453.402344 206.367188 453.230469 207.664062 453.230469 C 209.628906 453.230469 211.535156 453.625 213.578125 454.015625 C 215.613281 454.40625 217.78125 454.800781 220.273438 454.800781 C 221.398438 454.800781 222.597656 454.714844 223.875 454.519531 C 222.597656 454.714844 221.398438 454.800781 220.273438 454.800781 M 229.234375 453.019531 C 229.226562 453.011719 229.21875 453 229.207031 452.988281 C 229.21875 453 229.226562 453.011719 229.234375 453.019531 M 229.207031 452.988281 C 225.464844 447.871094 225.148438 441.015625 228.742188 435.792969 C 225.148438 441.015625 225.464844 447.871094 229.207031 452.988281 M 164.898438 450.953125 C 160.886719 446.285156 159.734375 442.746094 159.714844 442.683594 C 159.714844 442.679688 159.714844 442.679688 159.714844 442.679688 C 159.714844 442.679688 160.847656 446.234375 164.898438 450.953125 M 240.421875 436.078125 C 239.277344 429.761719 236 425.3125 235.972656 425.273438 C 235.972656 425.273438 239.273438 429.730469 240.421875 436.078125 M 242.136719 427.808594 C 242.984375 423.035156 243.554688 417.894531 243.117188 412.46875 C 243.554688 417.894531 242.984375 423.035156 242.136719 427.808594 " fill-opacity="1" fill-rule="nonzero"/><path fill="#e9744f" d="M 220.644531 368.402344 C 211.277344 361.453125 201.691406 361.167969 201.691406 361.167969 C 201.691406 361.167969 211.277344 361.453125 220.644531 368.402344 " fill-opacity="1" fill-rule="nonzero"/><path fill="#e4523e" d="M 231.53125 381.039062 C 228.414062 375.359375 224.546875 371.300781 220.644531 368.402344 C 224.546875 371.300781 228.414062 375.359375 231.53125 381.039062 " fill-opacity="1" fill-rule="nonzero"/><path fill="#692529" d="M 213.292969 465.789062 C 210.3125 464.371094 207.242188 463.941406 204.148438 463.941406 C 201.71875 463.941406 199.277344 464.203125 196.839844 464.472656 C 194.40625 464.738281 191.976562 465.003906 189.589844 465.003906 C 187.675781 465.003906 185.785156 464.835938 183.933594 464.359375 C 183.300781 464.195312 182.675781 463.996094 182.058594 463.757812 C 176.941406 461.234375 172.949219 458.496094 169.84375 455.855469 C 167.847656 454.15625 166.214844 452.492188 164.898438 450.953125 C 160.847656 446.234375 159.714844 442.679688 159.714844 442.679688 C 159.714844 442.679688 159.714844 442.679688 159.714844 442.683594 C 159.714844 442.679688 159.714844 442.679688 159.714844 442.679688 C 159.714844 442.679688 160.148438 447.65625 161.085938 453.726562 C 161.589844 456.960938 162.234375 460.492188 163.035156 463.757812 C 143.757812 450.550781 141.6875 425.269531 141.6875 425.269531 C 141.6875 425.269531 138.386719 429.730469 137.238281 436.078125 C 135.308594 427.265625 132.785156 416.714844 135.765625 405.125 C 146.636719 422.960938 161.230469 427.453125 173.164062 427.449219 C 185.25 427.449219 194.609375 422.84375 194.609375 422.84375 C 194.609375 422.84375 190.144531 431.785156 176.734375 436.945312 C 190.144531 436.253906 225.898438 429.035156 223.144531 397.402344 C 221.332031 376.316406 206.992188 365.851562 197.433594 361.167969 L 201.691406 361.167969 C 201.691406 361.167969 211.277344 361.449219 220.644531 368.402344 C 224.546875 371.300781 228.410156 375.355469 231.53125 381.039062 C 233.167969 384.015625 234.597656 387.445312 235.71875 391.382812 C 240.550781 398.746094 242.585938 405.816406 243.117188 412.464844 C 243.117188 412.46875 243.117188 412.46875 243.117188 412.46875 C 243.554688 417.894531 242.984375 423.035156 242.136719 427.808594 C 241.617188 430.707031 240.996094 433.46875 240.421875 436.078125 C 239.273438 429.730469 235.972656 425.273438 235.972656 425.273438 L 235.972656 425.269531 L 228.742188 435.792969 C 225.148438 441.015625 225.464844 447.871094 229.207031 452.988281 C 229.21875 453 229.226562 453.011719 229.234375 453.019531 C 229.253906 453.046875 229.269531 453.066406 229.289062 453.089844 C 229.167969 453.136719 229.042969 453.183594 228.917969 453.222656 C 227.089844 453.875 225.425781 454.28125 223.875 454.519531 C 222.597656 454.714844 221.398438 454.800781 220.273438 454.800781 C 217.78125 454.800781 215.613281 454.40625 213.578125 454.015625 C 211.535156 453.625 209.628906 453.230469 207.664062 453.230469 C 206.367188 453.230469 205.046875 453.402344 203.640625 453.851562 C 203.640625 453.855469 203.640625 453.851562 203.640625 453.855469 C 208.378906 455.375 211.195312 458.25 212.476562 461.273438 C 212.476562 461.277344 212.476562 461.277344 212.476562 461.28125 C 213.035156 462.589844 213.296875 463.929688 213.308594 465.199219 C 213.308594 465.398438 213.296875 465.59375 213.292969 465.789062 " fill-opacity="1" fill-rule="nonzero"/><path fill="#af4a4d" d="M 182.050781 415.972656 C 165.242188 415.972656 151.613281 406.421875 151.613281 394.644531 C 151.613281 382.867188 165.242188 373.320312 182.050781 373.320312 C 198.863281 373.320312 212.488281 382.867188 212.488281 394.644531 C 212.488281 406.421875 198.863281 415.972656 182.050781 415.972656 " fill-opacity="1" fill-rule="nonzero"/><path fill="#ed8f70" d="M 316.457031 238.835938 C 316.457031 238.835938 323.539062 240.816406 326.738281 237.410156 C 330.570312 233.320312 330.570312 227.480469 326.488281 224.660156 C 328.488281 222.304688 339.527344 218.519531 348.519531 227.980469 C 359.621094 239.667969 352.457031 267.996094 352.457031 267.996094 C 344.671875 260.675781 336.355469 265.246094 329.96875 268.785156 C 316.929688 255.65625 313.921875 248.367188 316.457031 238.835938 " fill-opacity="1" fill-rule="nonzero"/><path fill="#ed8f70" d="M 58.546875 238.835938 C 58.546875 238.835938 51.46875 240.816406 48.265625 237.410156 C 44.425781 233.320312 44.425781 227.480469 48.515625 224.660156 C 46.515625 222.304688 35.476562 218.519531 26.488281 227.980469 C 15.382812 239.667969 22.546875 267.996094 22.546875 267.996094 C 30.332031 260.675781 38.648438 265.246094 45.035156 268.785156 C 58.070312 255.65625 61.078125 248.367188 58.546875 238.835938 " fill-opacity="1" fill-rule="nonzero"/></svg>